<svg aria-hidden="true" style="position: absolute; width: 0; height: 0; overflow: hidden;" version="1.1" xmlns="http://www.w3.org/2000/svg" xmlns:xlink="http://www.w3.org/1999/xlink">
<defs>
<symbol id="icon-language" viewBox="0 0 32 32">
<path fill="#2e0a57" style="fill: var(--color1, #2e0a57)" d="M16 29.331c-1.823 0-3.55-0.35-5.168-1.051-1.624-0.7-3.043-1.654-4.251-2.868-1.214-1.214-2.168-2.626-2.868-4.251-0.7-1.618-1.051-3.345-1.051-5.168 0-1.841 0.35-3.568 1.051-5.18s1.66-3.025 2.868-4.232c1.214-1.214 2.626-2.168 4.251-2.868 1.618-0.7 3.339-1.051 5.168-1.051 1.841 0 3.568 0.35 5.18 1.051s3.025 1.654 4.232 2.868c1.214 1.208 2.168 2.62 2.868 4.232s1.051 3.339 1.051 5.18c0 1.823-0.35 3.55-1.051 5.168-0.7 1.624-1.654 3.043-2.868 4.251-1.208 1.214-2.62 2.168-4.232 2.868s-3.339 1.051-5.18 1.051zM16 26.596c0.574-0.797 1.075-1.63 1.497-2.5 0.423-0.863 0.767-1.787 1.032-2.765h-5.066c0.266 0.978 0.61 1.902 1.032 2.765 0.423 0.869 0.924 1.703 1.503 2.5zM12.528 26.065c-0.399-0.737-0.749-1.497-1.051-2.288-0.296-0.785-0.549-1.6-0.749-2.445h-3.931c0.646 1.111 1.449 2.077 2.415 2.898s2.071 1.437 3.315 1.835zM19.466 26.065c1.244-0.398 2.349-1.014 3.315-1.835s1.775-1.787 2.415-2.898h-3.931c-0.199 0.845-0.453 1.66-0.749 2.451-0.302 0.785-0.652 1.546-1.051 2.282zM5.663 18.663h4.534c-0.066-0.441-0.115-0.881-0.151-1.316s-0.048-0.881-0.048-1.352c0-0.465 0.018-0.912 0.048-1.346 0.036-0.435 0.085-0.869 0.151-1.316h-4.534c-0.109 0.441-0.193 0.881-0.248 1.316-0.060 0.435-0.085 0.881-0.085 1.346 0 0.471 0.024 0.918 0.085 1.352 0.054 0.435 0.139 0.869 0.248 1.316zM12.866 18.663h6.261c0.072-0.441 0.121-0.881 0.151-1.316 0.036-0.435 0.054-0.881 0.054-1.352 0-0.465-0.018-0.912-0.054-1.346-0.030-0.435-0.085-0.869-0.151-1.316h-6.261c-0.066 0.441-0.121 0.881-0.151 1.316-0.036 0.435-0.054 0.881-0.054 1.346 0 0.471 0.018 0.918 0.054 1.352 0.030 0.435 0.085 0.869 0.151 1.316zM21.796 18.663h4.534c0.109-0.441 0.193-0.881 0.254-1.316 0.054-0.435 0.078-0.881 0.078-1.352 0-0.465-0.024-0.912-0.085-1.346-0.054-0.435-0.139-0.869-0.248-1.316h-4.534c0.066 0.441 0.115 0.881 0.151 1.316s0.048 0.881 0.048 1.346c0 0.471-0.012 0.918-0.048 1.352s-0.085 0.869-0.151 1.316zM21.265 10.663h3.931c-0.64-1.111-1.449-2.077-2.415-2.898s-2.071-1.437-3.315-1.835c0.398 0.737 0.749 1.497 1.051 2.282 0.296 0.791 0.549 1.606 0.749 2.451zM13.464 10.663h5.066c-0.266-0.978-0.61-1.902-1.032-2.765-0.423-0.869-0.924-1.703-1.497-2.5-0.58 0.797-1.081 1.63-1.503 2.5-0.423 0.863-0.767 1.787-1.032 2.765zM6.798 10.663h3.931c0.199-0.845 0.453-1.66 0.755-2.451 0.296-0.785 0.646-1.546 1.045-2.282-1.244 0.399-2.349 1.014-3.315 1.835s-1.775 1.787-2.415 2.898z"></path>
</symbol>
<symbol id="icon-instagram" viewBox="0 0 32 32">
<path fill="#3b176b" style="fill: var(--color2, #3b176b)" d="M14.941 32c-8.832 0-16.018-7.192-16.018-16.034 0-8.838 7.186-16.032 16.018-16.032 8.833 0 16.021 7.194 16.021 16.032 0 8.841-7.187 16.034-16.021 16.034zM24.052 21.563v-11.188c0-1.946-1.579-3.526-3.522-3.526h-11.179c-1.941 0-3.52 1.58-3.52 3.526v11.188c0 1.942 1.579 3.522 3.52 3.522h11.179c1.943 0 3.522-1.58 3.522-3.522zM18.858 8.96l3.090-0.010v3.091l-3.079 0.009-0.012-3.090zM11.733 15.966c0 1.772 1.44 3.21 3.207 3.21s3.207-1.438 3.207-3.21c0-0.698-0.227-1.342-0.605-1.87-0.582-0.808-1.531-1.337-2.602-1.337-1.068 0-2.016 0.527-2.6 1.337-0.382 0.527-0.605 1.172-0.608 1.87zM9.351 23.308h11.178c0.964 0 1.745-0.78 1.745-1.744v-7.467h-2.719c0.234 0.577 0.368 1.211 0.368 1.87 0 2.749-2.234 4.988-4.984 4.988-2.748 0-4.982-2.239-4.982-4.988 0-0.659 0.132-1.293 0.366-1.87h-2.719v7.467c0 0.964 0.78 1.744 1.745 1.744z"></path>
</symbol>
<symbol id="icon-youtube" viewBox="0 0 32 32">
<path fill="#3b176b" style="fill: var(--color2, #3b176b)" d="M15.751 31.344c8.851 0 16.025-7.175 16.025-16.025 0-8.852-7.175-16.027-16.025-16.027-8.853 0-16.028 7.175-16.028 16.027 0 8.851 7.175 16.025 16.028 16.025zM11.347 7.903l0.826-3.175h1.226l-1.457 4.811v3.276h-1.211v-3.276c-0.111-0.58-0.353-1.429-0.741-2.559-0.256-0.751-0.521-1.504-0.778-2.253h1.274l0.86 3.175zM16.294 7.333c0.229 0.304 0.339 0.777 0.339 1.419v2.111c0 0.64-0.11 1.115-0.339 1.418-0.301 0.411-0.727 0.617-1.273 0.617-0.545 0-0.971-0.206-1.273-0.617-0.233-0.302-0.34-0.777-0.34-1.418v-2.111c0-0.643 0.108-1.114 0.34-1.419 0.302-0.412 0.728-0.618 1.273-0.618 0.546 0 0.972 0.206 1.273 0.618zM19.583 6.788h1.091v6.027h-1.091v-0.658c-0.436 0.499-0.85 0.741-1.248 0.741-0.352 0-0.594-0.144-0.705-0.448-0.059-0.183-0.096-0.472-0.096-0.897v-4.765h1.089v4.437c0 0.256 0 0.389 0.013 0.424 0.024 0.17 0.111 0.256 0.256 0.256 0.22 0 0.449-0.169 0.691-0.511v-4.606zM22.447 13.693c0.937 0.106 1.715 0.807 1.934 1.758 0.306 1.331 0.308 2.781 0.308 4.154v0.073c0 1.393 0 2.873-0.313 4.225-0.219 0.951-0.995 1.652-1.932 1.758-2.218 0.247-4.461 0.248-6.696 0.247-2.235 0.001-4.479 0-6.697-0.247-0.936-0.106-1.713-0.807-1.933-1.758-0.31-1.353-0.31-2.832-0.31-4.225 0-1.395 0.003-2.873 0.316-4.227 0.216-0.951 0.995-1.652 1.931-1.758 2.218-0.246 4.462-0.248 6.696-0.246 2.235-0.002 4.479 0 6.696 0.246zM23.082 22.813c0.131-0.19 0.216-0.407 0.252-0.647 0.009-0.109 0.022-0.347 0.022-0.697v-0.157h-1.102c0 0.432-0.013 0.673-0.023 0.732-0.062 0.288-0.216 0.432-0.484 0.432-0.37 0-0.552-0.275-0.552-0.826v-1.059h2.161v-1.234c0-0.637-0.106-1.103-0.334-1.406-0.301-0.408-0.732-0.612-1.274-0.612-0.552 0-0.981 0.203-1.294 0.612-0.229 0.303-0.332 0.768-0.332 1.406v2.090c0 0.633 0.116 1.103 0.345 1.401 0.312 0.408 0.744 0.612 1.309 0.612s1.007-0.213 1.307-0.647zM21.198 19.694v-0.55c0-0.553 0.181-0.829 0.542-0.829 0.358 0 0.539 0.276 0.539 0.829v0.55h-1.081zM18.309 23.462c0.428 0 0.719-0.228 0.862-0.671 0.072-0.253 0.109-0.65 0.109-1.2v-2.375c0-0.565-0.037-0.959-0.109-1.199-0.144-0.448-0.434-0.675-0.862-0.675-0.398 0-0.77 0.218-1.118 0.647v-2.614h-1.081v8.005h1.081v-0.579c0.361 0.446 0.733 0.66 1.118 0.66zM18.2 19.129v2.546c0 0.538-0.157 0.803-0.469 0.803-0.178 0-0.359-0.084-0.54-0.265v-3.635c0.182-0.178 0.362-0.263 0.54-0.263 0.31 0 0.469 0.276 0.469 0.814zM14.096 22.727c-0.43 0.493-0.837 0.733-1.235 0.733-0.347 0-0.588-0.143-0.697-0.444-0.059-0.18-0.096-0.465-0.096-0.886v-4.715h1.081v4.39c0 0.253 0 0.385 0.009 0.419 0.028 0.169 0.109 0.253 0.254 0.253 0.218 0 0.443-0.167 0.684-0.505v-4.557h1.082v5.964h-1.082v-0.652zM10.616 23.381h-1.203v-6.879h-1.271v-1.125h3.767v1.125h-1.294v6.879zM15.023 11.905c-0.353 0-0.522-0.278-0.522-0.838v-2.534c0-0.557 0.169-0.836 0.522-0.836 0.351 0 0.52 0.279 0.52 0.836v2.534c0 0.559-0.169 0.838-0.52 0.838z"></path>
</symbol>
<symbol id="icon-linkedin" viewBox="0 0 31 32">
<path fill="#3b176b" style="fill: var(--color2, #3b176b)" d="M15.389 30.906c-8.535 0-15.453-6.918-15.453-15.453s6.919-15.453 15.453-15.453c8.535 0 15.453 6.919 15.453 15.453s-6.919 15.453-15.453 15.453zM7.872 10.464c0-0.938 0.762-1.65 1.929-1.65 1.165 0 1.884 0.713 1.905 1.65 0 0.917-0.74 1.651-1.929 1.651h-0.021c-1.144 0-1.884-0.734-1.884-1.651zM23.768 17.495c0-2.936-1.683-4.302-3.924-4.302-1.81 0-2.618 0.927-3.071 1.579v-1.354h-3.41c0.045 0.898 0 9.556 0 9.556h3.41v-5.336c0-0.285 0.022-0.571 0.112-0.774 0.246-0.571 0.807-1.162 1.749-1.162 1.233 0 1.727 0.877 1.727 2.162v5.111h3.408v-5.478zM8.070 22.975h3.408v-9.556h-3.408v9.556zM16.77 14.771c-0.008 0.010-0.017 0.021-0.023 0.032h0.023v-0.032z"></path>
</symbol>
<symbol id="icon-twitter" viewBox="0 0 31 32">
<path fill="#3b176b" style="fill: var(--color2, #3b176b)" d="M-1.045 15.453c0 8.535 6.919 15.453 15.453 15.453s15.453-6.919 15.453-15.453c0-8.535-6.918-15.453-15.453-15.453s-15.453 6.919-15.453 15.453zM20.757 9.958c0.867-0.161 1.682-0.457 2.418-0.865-0.285 0.832-0.888 1.53-1.674 1.973 0.769-0.087 1.503-0.277 2.186-0.562-0.511 0.715-1.156 1.342-1.9 1.846 0.007 0.154 0.011 0.307 0.011 0.463 0 4.712-3.828 10.148-10.829 10.148-2.148 0-4.15-0.591-5.834-1.602 0.298 0.033 0.6 0.049 0.907 0.049 1.785 0 3.425-0.57 4.728-1.527-1.666-0.029-3.071-1.061-3.556-2.476 0.232 0.041 0.471 0.062 0.716 0.062 0.347 0 0.683-0.042 1.002-0.124-1.741-0.327-3.052-1.769-3.052-3.497v-0.045c0.513 0.268 1.1 0.427 1.723 0.446-1.020-0.639-1.693-1.732-1.693-2.969 0-0.654 0.189-1.266 0.516-1.793 1.877 2.158 4.682 3.578 7.845 3.726-0.066-0.26-0.099-0.532-0.099-0.812 0-1.97 1.705-3.567 3.807-3.567 1.094 0 2.084 0.433 2.777 1.127z"></path>
</symbol>
<symbol id="icon-facebook" viewBox="0 0 32 32">
<path fill="#3b176b" style="fill: var(--color2, #3b176b)" d="M0 15.453c0 8.535 6.919 15.453 15.453 15.453s15.453-6.919 15.453-15.453c0-8.535-6.919-15.453-15.453-15.453s-15.453 6.919-15.453 15.453zM18.105 9.957c-1.128 0-1.202 0.404-1.202 1.158l-0.004 1.446h2.73l-0.319 2.889h-2.411v8.384h-3.613v-8.384h-1.806v-2.889h1.806v-1.735c0-2.357 1.019-3.759 3.914-3.759h2.411v2.89h-1.506z"></path>
</symbol>
<symbol id="icon-menu" viewBox="0 0 32 32">
<path d="M4 5.333h24V8H4V5.333zm0 9.334h24v2.667H4v-2.667zM4 24h24v2.667H4V24z"/>
</symbol>
<symbol id="icon-close" viewBox="0 0 32 32">
<path d="m16 14.115 6.6-6.6 1.886 1.886-6.6 6.6 6.6 6.6-1.886 1.886-6.6-6.6-6.6 6.6-1.886-1.886 6.6-6.6-6.6-6.6L9.4 7.515l6.6 6.6z"/>
</symbol>
</defs>
</svg>
